
        <svg width="400px" height="400px" viewBox="0 0 400 400" version="1.1" xmlns="http://www.w3.org/2000/svg" xmlns:xlink="http://www.w3.org/1999/xlink">
          <defs>
            <linearGradient x1="0%" y1="50%" x2="100%" y2="50%" id="shadeGradientLight">
              <stop stop-color="#CDCED1" offset="0%"></stop>
              <stop stop-color="#A0A1A7" offset="16.67%"></stop>
              <stop stop-color="#9D9D9F" offset="33.33%"></stop>
              <stop stop-color="#83858B" offset="50%"></stop>
              <stop stop-color="#696C77" offset="66.67%"></stop>
              <stop stop-color="#51535D" offset="83.33%"></stop>
              <stop stop-color="#383A42" offset="100%"></stop>
            </linearGradient>
            <linearGradient x1="0%" y1="50%" x2="100%" y2="50%" id="shadeGradientDark">
              <stop stop-color="#424242" offset="0%"></stop>
              <stop stop-color="#616161" offset="16.67%"></stop>
              <stop stop-color="#818181" offset="33.33%"></stop>
              <stop stop-color="#A0A0A0" offset="50%"></stop>
              <stop stop-color="#C0C0C0" offset="66.67%"></stop>
              <stop stop-color="#DFDFDF" offset="83.33%"></stop>
              <stop stop-color="#FFFFFF" offset="100%"></stop>
            </linearGradient>
          </defs>
          <g id="light">
            <rect fill="#FAFAFA" x="0" y="0" width="400" height="200"></rect>
            <rect fill="#E45649" x="28" y="28" width="74" height="37"></rect>
            <rect fill="#986801" x="118" y="28" width="74" height="37"></rect>
            <rect fill="#C18401" x="208" y="28" width="74" height="37"></rect>
            <rect fill="#50A14F" x="298" y="28" width="74" height="37"></rect>
            <rect fill="#0184BC" x="28" y="81" width="74" height="37"></rect>
            <rect fill="#4078F2" x="118" y="81" width="74" height="37"></rect>
            <rect fill="#A626A4" x="208" y="81" width="74" height="37"></rect>
            <rect fill="#CA1243" x="298" y="81" width="74" height="37"></rect>
            <rect fill="url(#shadeGradientLight)" x="28" y="134" width="344" height="37"></rect>
          </g>
          <g id="dark" transform="translate(0.000000, 200.000000)">
            <rect fill="#222222" x="0" y="0" width="400" height="200"></rect>
            <rect fill="#E06C75" x="28" y="28" width="74" height="37"></rect>
            <rect fill="#D19A66" x="118" y="28" width="74" height="37"></rect>
            <rect fill="#E5C07B" x="208" y="28" width="74" height="37"></rect>
            <rect fill="#98C379" x="298" y="28" width="74" height="37"></rect>
            <rect fill="#56B6C2" x="28" y="81" width="74" height="37"></rect>
            <rect fill="#61AFEF" x="118" y="81" width="74" height="37"></rect>
            <rect fill="#C678DD" x="208" y="81" width="74" height="37"></rect>
            <rect fill="#BE5046" x="298" y="81" width="74" height="37"></rect>
            <rect fill="url(#shadeGradientDark)" x="28" y="134" width="344" height="37"></rect>
          </g>
        </svg>
      