
        <svg width="400px" height="400px" viewBox="0 0 400 400" version="1.1" xmlns="http://www.w3.org/2000/svg" xmlns:xlink="http://www.w3.org/1999/xlink">
          <defs>
            <linearGradient x1="0%" y1="50%" x2="100%" y2="50%" id="shadeGradientLight">
              <stop stop-color="#6F6F6F" offset="0%"></stop>
              <stop stop-color="#5C5C5C" offset="16.67%"></stop>
              <stop stop-color="#4A4A4A" offset="33.33%"></stop>
              <stop stop-color="#373737" offset="50%"></stop>
              <stop stop-color="#252525" offset="66.67%"></stop>
              <stop stop-color="#121212" offset="83.33%"></stop>
              <stop stop-color="#000000" offset="100%"></stop>
            </linearGradient>
            <linearGradient x1="0%" y1="50%" x2="100%" y2="50%" id="shadeGradientDark">
              <stop stop-color="#2A2A2A" offset="0%"></stop>
              <stop stop-color="#818181" offset="16.67%"></stop>
              <stop stop-color="#818181" offset="33.33%"></stop>
              <stop stop-color="#A29DA3" offset="50%"></stop>
              <stop stop-color="#C1BCC2" offset="66.67%"></stop>
              <stop stop-color="#E0DCE0" offset="83.33%"></stop>
              <stop stop-color="#FFFCFF" offset="100%"></stop>
            </linearGradient>
          </defs>
          <g id="light">
            <rect fill="#818181" x="0" y="0" width="400" height="200"></rect>
            <rect fill="#FF6961" x="28" y="28" width="74" height="37"></rect>
            <rect fill="#FFB340" x="118" y="28" width="74" height="37"></rect>
            <rect fill="#FFD426" x="208" y="28" width="74" height="37"></rect>
            <rect fill="#31DE4B" x="298" y="28" width="74" height="37"></rect>
            <rect fill="#70D7FF" x="28" y="81" width="74" height="37"></rect>
            <rect fill="#409CFF" x="118" y="81" width="74" height="37"></rect>
            <rect fill="#DA8FFF" x="208" y="81" width="74" height="37"></rect>
            <rect fill="#FF6482" x="298" y="81" width="74" height="37"></rect>
            <rect fill="url(#shadeGradientLight)" x="28" y="134" width="344" height="37"></rect>
          </g>
          <g id="dark" transform="translate(0.000000, 200.000000)">
            <rect fill="#222222" x="0" y="0" width="400" height="200"></rect>
            <rect fill="#FF6961" x="28" y="28" width="74" height="37"></rect>
            <rect fill="#FFB340" x="118" y="28" width="74" height="37"></rect>
            <rect fill="#FFD426" x="208" y="28" width="74" height="37"></rect>
            <rect fill="#31DE4B" x="298" y="28" width="74" height="37"></rect>
            <rect fill="#70D7FF" x="28" y="81" width="74" height="37"></rect>
            <rect fill="#409CFF" x="118" y="81" width="74" height="37"></rect>
            <rect fill="#DA8FFF" x="208" y="81" width="74" height="37"></rect>
            <rect fill="#FF6482" x="298" y="81" width="74" height="37"></rect>
            <rect fill="url(#shadeGradientDark)" x="28" y="134" width="344" height="37"></rect>
          </g>
        </svg>
      